<?xml version="1.0" encoding="iso-8859-1"?>
<!-- Generator: Adobe Illustrator 19.0.0, SVG Export Plug-In . SVG Version: 6.00 Build 0)  -->
<svg version="1.1" id="Capa_1" xmlns="http://www.w3.org/2000/svg" xmlns:xlink="http://www.w3.org/1999/xlink" x="0px" y="0px"
	 viewBox="0 0 512 512" style="enable-background:new 0 0 512 512;" xml:space="preserve">
<path style="fill:#7E8596;" d="M438.402,209.579c-1.64,0-3.307-0.271-4.942-0.841L10.063,61.005
	C2.24,58.276-1.888,49.723,0.841,41.9c2.729-7.822,11.284-11.95,19.104-9.221l423.398,147.732
	c7.821,2.729,11.95,11.282,9.221,19.104C450.406,205.703,444.604,209.579,438.402,209.579z"/>
<path style="fill:#DCE1EB;" d="M438.402,209.579c-1.64,0-3.307-0.271-4.942-0.841L10.063,61.005
	C2.24,58.276-1.888,49.723,0.841,41.9l451.722,157.616C450.406,205.703,444.604,209.579,438.402,209.579z"/>
<path style="fill:#333940;" d="M458.001,145.167h-85.999c-8.284,0-15,6.716-15,15v65.999c0,8.284,6.716,15,15,15h85.999
	c8.284,0,15-6.716,15-15v-65.999C473.001,151.883,466.285,145.167,458.001,145.167z"/>
<path style="fill:#636978;" d="M415.001,145.167h-43c-8.284,0-15,6.716-15,15v65.999c0,8.284,6.716,15,15,15h43V145.167z"/>
<path style="fill:#C3000A;" d="M512,237.167c0-24.853-20.147-45-45-45H45.004c-24.853,0-45,20.147-45,45v197.996
	c0,24.853,20.147,45,45,45h421.997c24.853,0,45-20.147,45-45V237.167z"/>
<path style="fill:#FF3632;" d="M271.002,192.167H45.004c-24.853,0-45,20.147-45,45v197.996c0,24.853,20.147,45,45,45h225.998
	V192.167z"/>
<path style="fill:#11A892;" d="M379.011,260.166h-14.7c-8.284,0-15,6.716-15,15s6.716,15,15,15h14.7c8.284,0,15-6.716,15-15
	S387.295,260.166,379.011,260.166z"/>
<circle style="fill:#FFA547;" cx="136.179" cy="335.428" r="114.639"/>
<path style="fill:#FFD15E;" d="M136.182,450.061c-63.311,0-114.636-51.325-114.636-114.636s51.325-114.636,114.636-114.636V450.061z
	"/>
<path style="fill:#636978;" d="M85.503,400.423V270.427c-19.333,15.108-31.798,38.618-31.798,64.999
	C53.705,361.807,66.17,385.315,85.503,400.423z"/>
<g>
	<path style="fill:#333940;" d="M186.863,270.427v129.997c19.333-15.108,31.798-38.618,31.798-64.998
		C218.661,309.045,206.196,285.535,186.863,270.427z"/>
	<path style="fill:#333940;" d="M155.402,415.618V255.232c-6.171-1.479-12.601-2.284-19.219-2.284
		c-6.618,0-13.049,0.805-19.22,2.285v160.386c6.171,1.479,12.602,2.285,19.22,2.285
		C142.801,417.903,149.231,417.098,155.402,415.618z"/>
</g>
<path style="fill:#636978;" d="M136.183,252.947c-6.618,0-13.049,0.805-19.22,2.285v160.386c6.171,1.479,12.602,2.285,19.22,2.285
	V252.947z"/>
<path style="fill:#FFA547;" d="M435.777,260.166h-14.7c-8.284,0-15,6.716-15,15s6.716,15,15,15h14.7c8.284,0,15-6.716,15-15
	S444.061,260.166,435.777,260.166z"/>
<g>
</g>
<g>
</g>
<g>
</g>
<g>
</g>
<g>
</g>
<g>
</g>
<g>
</g>
<g>
</g>
<g>
</g>
<g>
</g>
<g>
</g>
<g>
</g>
<g>
</g>
<g>
</g>
<g>
</g>
</svg>
